<svg version="1.1" id="Layer_1" xmlns="http://www.w3.org/2000/svg" xmlns:xlink="http://www.w3.org/1999/xlink" x="0px" y="0px"
	 width="100%" viewBox="0 0 2466 2209" enable-background="new 0 0 2466 2209" xml:space="preserve">
<path fill="#FFFFFF" opacity="1.000000" stroke="none" 
	d="
M1600.000000,2212.000000 
	C1066.666626,2212.000000 534.333313,2212.000000 2.000000,2212.000000 
	C2.000000,1475.333374 2.000000,738.666687 2.000000,2.000000 
	C824.000000,2.000000 1646.000000,2.000000 2468.000000,2.000000 
	C2468.000000,738.666687 2468.000000,1475.333374 2468.000000,2212.000000 
	C2179.000000,2212.000000 1890.000000,2212.000000 1600.000000,2212.000000 
M1505.036865,835.612305 
	C1505.483765,835.261902 1505.805786,834.820374 1507.857422,834.000122 
	C1610.617920,834.000122 1713.378418,834.000122 1818.224243,834.000122 
	C1811.449951,827.649231 1806.481323,822.898865 1801.414673,818.255310 
	C1728.965210,751.854919 1656.469238,685.505310 1584.127319,618.987854 
	C1579.797607,615.006653 1575.414307,613.895813 1569.795654,613.904480 
	C1481.467529,614.040588 1393.138916,613.994873 1304.810547,614.020569 
	C1301.584473,614.021545 1298.358521,614.326111 1294.006104,614.546082 
	C1294.006104,925.942627 1294.006104,1236.677124 1294.006104,1547.452393 
	C1239.643921,1547.452393 1186.464233,1547.452393 1132.114746,1547.452393 
	C1132.114746,1236.168091 1132.114746,925.428955 1132.114746,614.000427 
	C1128.666870,614.000427 1126.388428,614.000427 1124.109863,614.000427 
	C1034.781494,614.000305 945.453125,614.046204 856.125061,613.886963 
	C850.690247,613.877258 846.775635,615.548340 842.851562,619.135010 
	C818.761292,641.154114 794.369019,662.843140 770.304382,684.889832 
	C742.887512,710.007568 715.753723,735.434082 688.411499,760.633667 
	C664.394043,782.768921 640.246704,804.763123 616.197571,826.864014 
	C614.203125,828.696777 612.520813,830.869202 609.453796,834.250488 
	C715.134033,834.250488 818.683594,834.250488 923.297852,834.250488 
	C923.297852,1210.059326 923.297852,1585.205811 923.297852,1959.744385 
	C924.929260,1960.687012 925.483398,1961.270020 926.066528,1961.300415 
	C929.390381,1961.474243 932.721191,1961.594360 936.049500,1961.592163 
	C1124.694702,1961.468750 1313.339844,1961.331909 1501.984985,1961.169800 
	C1502.239990,1961.169556 1502.498047,1960.775757 1502.748901,1960.559082 
	C1502.995605,1960.345947 1503.234985,1960.123901 1503.964478,1959.468262 
	C1503.964478,1955.545166 1503.964478,1951.231201 1503.964478,1946.917358 
	C1503.964478,1580.937744 1503.963257,1214.958252 1503.978516,848.978699 
	C1503.978760,844.652588 1504.191895,840.326416 1505.036865,835.612305 
M1143.112549,344.112549 
	C1118.540161,366.631470 1093.901367,389.078400 1069.414551,411.689789 
	C1045.230225,434.021851 1020.427368,455.706818 996.001160,479.329590 
	C1141.839844,479.329590 1285.901123,479.329590 1431.430908,479.329590 
	C1358.086548,412.160309 1285.879639,346.032715 1213.440796,279.692688 
	C1189.796753,301.347473 1166.975220,322.249115 1143.112549,344.112549 
z"/>
<path fill="#FDB913" opacity="1.000000" stroke="none" 
	d="
M1504.305542,836.000305 
	C1504.191895,840.326416 1503.978760,844.652588 1503.978516,848.978699 
	C1503.963257,1214.958252 1503.964478,1580.937744 1503.964478,1946.917358 
	C1503.964478,1951.231201 1503.964478,1955.545166 1503.964478,1959.468262 
	C1503.234985,1960.123901 1502.995605,1960.345947 1502.748901,1960.559082 
	C1502.498047,1960.775757 1502.239990,1961.169556 1501.984985,1961.169800 
	C1313.339844,1961.331909 1124.694702,1961.468750 936.049500,1961.592163 
	C932.721191,1961.594360 929.390381,1961.474243 926.066528,1961.300415 
	C925.483398,1961.270020 924.929260,1960.687012 923.297852,1959.744385 
	C923.297852,1585.205811 923.297852,1210.059326 923.297852,834.250488 
	C818.683594,834.250488 715.134033,834.250488 609.453796,834.250488 
	C612.520813,830.869202 614.203125,828.696777 616.197571,826.864014 
	C640.246704,804.763123 664.394043,782.768921 688.411499,760.633667 
	C715.753723,735.434082 742.887512,710.007568 770.304382,684.889832 
	C794.369019,662.843140 818.761292,641.154114 842.851562,619.135010 
	C846.775635,615.548340 850.690247,613.877258 856.125061,613.886963 
	C945.453125,614.046204 1034.781494,614.000305 1124.109863,614.000427 
	C1126.388428,614.000427 1128.666870,614.000427 1132.114746,614.000427 
	C1132.114746,925.428955 1132.114746,1236.168091 1132.114746,1547.452393 
	C1186.464233,1547.452393 1239.643921,1547.452393 1294.006104,1547.452393 
	C1294.006104,1236.677124 1294.006104,925.942627 1294.006104,614.546082 
	C1298.358521,614.326111 1301.584473,614.021545 1304.810547,614.020569 
	C1393.138916,613.994873 1481.467529,614.040588 1569.795654,613.904480 
	C1575.414307,613.895813 1579.797607,615.006653 1584.127319,618.987854 
	C1656.469238,685.505310 1728.965210,751.854919 1801.414673,818.255310 
	C1806.481323,822.898865 1811.449951,827.649231 1818.224243,834.000122 
	C1713.378418,834.000122 1610.617920,834.000122 1506.408203,834.120605 
	C1504.741089,834.827515 1504.523315,835.413879 1504.305542,836.000305 
z"/>
<path fill="#FDB914" opacity="1.000000" stroke="none" 
	d="
M1143.633057,343.631653 
	C1166.975220,322.249115 1189.796753,301.347473 1213.440796,279.692688 
	C1285.879639,346.032715 1358.086548,412.160309 1431.430908,479.329590 
	C1285.901123,479.329590 1141.839844,479.329590 996.001160,479.329590 
	C1020.427368,455.706818 1045.230225,434.021851 1069.414551,411.689789 
	C1093.901367,389.078400 1118.540161,366.631470 1143.633057,343.631653 
z"/>
<path fill="#FFF7E5" opacity="1.000000" stroke="none" 
	d="
M1504.671143,835.806274 
	C1504.523315,835.413879 1504.741089,834.827515 1505.480835,834.264465 
	C1505.805786,834.820374 1505.483765,835.261902 1504.671143,835.806274 
z"/>
</svg>