<svg width="1355" height="1884" viewBox="0 0 1355 1884" xmlns="http://www.w3.org/2000/svg" xmlns:xlink="http://www.w3.org/1999/xlink" xml:space="preserve" overflow="hidden"><defs><clipPath id="clip0"><rect x="1476" y="364" width="1355" height="1884"/></clipPath></defs><g clip-path="url(#clip0)" transform="translate(-1476 -364)"><path d="M2479.11 986.861C2478.98 991.708 2478.74 996.555 2478.74 1001.4 2478.72 1411.45 2478.72 1821.51 2478.72 2231.56 2478.72 2236.39 2478.72 2241.23 2478.72 2245.62 2477.91 2246.36 2477.64 2246.6 2477.36 2246.84 2477.08 2247.09 2476.79 2247.53 2476.5 2247.53 2265.04 2247.71 2053.57 2247.86 1842.11 2248 1838.37 2248 1834.64 2247.87 1830.91 2247.67 1830.26 2247.64 1829.64 2246.99 1827.81 2245.93 1827.81 1826.29 1827.81 1405.97 1827.81 984.901 1710.54 984.901 1594.46 984.901 1476 984.901 1479.44 981.112 1481.32 978.678 1483.56 976.625 1510.52 951.862 1537.59 927.219 1564.51 902.419 1595.16 874.184 1625.58 845.696 1656.31 817.553 1683.29 792.852 1710.63 768.551 1737.63 743.88 1742.03 739.862 1746.42 737.989 1752.51 738 1852.65 738.179 1952.78 738.127 2052.92 738.127 2055.47 738.127 2058.02 738.127 2061.89 738.127 2061.89 1087.06 2061.89 1435.22 2061.89 1783.99 2122.81 1783.99 2182.43 1783.99 2243.37 1783.99 2243.37 1435.79 2243.37 1087.63 2243.37 738.738 2248.24 738.492 2251.86 738.151 2255.48 738.15 2354.49 738.121 2453.5 738.172 2552.52 738.02 2558.82 738.01 2563.73 739.255 2568.58 743.715 2649.68 818.243 2730.94 892.583 2812.16 966.979 2817.84 972.182 2823.41 977.504 2831 984.62 2713.47 984.62 2598.28 984.62 2481.46 984.755 2479.59 985.547 2479.35 986.204 2479.11 986.861Z" fill="#FDB913" fill-rule="evenodd"/><path d="M2074.46 435.422C2100.62 411.537 2126.19 388.189 2152.69 364 2233.88 438.104 2314.8 511.97 2397 587 2233.9 587 2072.45 587 1909 587 1936.38 560.613 1964.17 536.39 1991.28 511.445 2018.72 486.187 2046.33 461.113 2074.46 435.422Z" fill="#FDB914" fill-rule="evenodd"/></g></svg>
